<?xml version="1.0" standalone="no"?>
<!DOCTYPE svg PUBLIC "-//W3C//DTD SVG 20010904//EN"
 "http://www.w3.org/TR/2001/REC-SVG-20010904/DTD/svg10.dtd">
<svg version="1.0" xmlns="http://www.w3.org/2000/svg"
 width="266.000000pt" height="284.000000pt" viewBox="0 0 266.000000 284.000000"
 preserveAspectRatio="xMidYMid meet">

<g transform="translate(0.000000,284.000000) scale(0.100000,-0.100000)"
fill="#ce1818" stroke="none">
<path d="M521 2739 c-182 -31 -333 -131 -378 -252 -17 -47 -15 -134 3 -173 15
-32 88 -83 100 -71 3 2 0 24 -5 48 -6 24 -11 72 -11 107 0 180 65 240 273 250
105 5 110 4 104 -14 -3 -10 -31 -81 -62 -157 -32 -77 -79 -198 -105 -270 l-48
-131 -78 -12 c-89 -12 -134 -32 -158 -68 -27 -41 -21 -58 17 -51 46 8 172 23
175 20 1 -1 -23 -71 -53 -155 -116 -319 -149 -462 -126 -546 13 -49 37 -73 85
-84 l35 -8 6 57 c12 118 57 314 118 526 l64 220 154 5 c128 4 159 8 182 24 15
10 27 21 27 25 0 7 -251 41 -303 41 -25 0 -28 3 -22 23 32 113 167 516 177
528 12 15 22 15 128 -7 139 -28 173 -29 225 -5 42 19 156 130 120 116 -47 -18
-165 -16 -307 4 -155 22 -247 25 -337 10z"/>
<path d="M1508 2260 c-112 -34 -208 -170 -309 -440 -23 -63 -46 -119 -51 -124
-12 -15 -82 66 -96 111 -15 49 -15 116 -2 162 5 19 8 36 6 39 -2 2 -18 -4 -35
-12 -69 -36 -92 -153 -46 -232 25 -42 99 -100 143 -111 18 -4 21 -10 16 -27
-83 -262 -165 -500 -197 -569 -35 -77 -43 -88 -61 -83 -209 57 -346 40 -354
-44 -10 -97 101 -182 217 -166 50 7 114 41 150 80 14 14 30 26 36 26 7 0 63
-24 126 -54 210 -98 274 -119 365 -120 71 -1 85 2 120 25 23 16 51 47 68 79
l29 53 -24 -7 c-13 -4 -55 -10 -94 -13 -85 -6 -183 11 -387 68 l-146 41 53
101 c64 121 79 157 160 392 l63 180 63 6 c127 13 203 45 285 121 124 114 184
321 126 434 -36 71 -140 109 -224 84z m122 -60 c45 -45 14 -210 -62 -337 -66
-110 -192 -203 -275 -203 -22 0 -22 1 24 133 55 157 114 298 149 350 47 71
123 98 164 57z m-848 -1270 c74 -25 76 -35 14 -78 -64 -44 -146 -41 -194 8
-37 37 -45 66 -24 86 21 22 113 14 204 -16z"/>
<path d="M2179 1662 c-109 -37 -190 -110 -243 -222 -29 -60 -31 -73 -31 -175
0 -98 3 -116 27 -167 14 -31 45 -77 68 -102 38 -41 40 -46 21 -46 -45 0 -177
-52 -243 -96 -207 -138 -291 -373 -199 -559 66 -133 207 -205 376 -192 129 10
240 64 354 171 98 93 223 278 202 299 -13 13 -10 15 -46 -48 -139 -246 -391
-396 -580 -344 -56 16 -126 89 -148 158 -45 139 2 309 121 433 67 71 137 116
219 144 l63 21 -29 37 c-54 68 -66 116 -66 266 0 118 3 143 24 197 28 75 90
149 146 174 55 25 140 25 183 -1 88 -54 64 -196 -54 -320 -56 -59 -56 -60 -40
-85 19 -30 56 -41 85 -26 30 16 79 93 102 158 26 78 26 183 -2 240 -43 89
-181 127 -310 85z"/>
<path d="M82 34 c10 -10 20 -16 22 -13 3 3 -5 11 -17 18 -21 13 -21 12 -5 -5z"/>
<path d="M2566 35 c-11 -8 -15 -15 -9 -15 6 0 16 7 23 15 16 19 11 19 -14 0z"/>
</g>
</svg>
